<svg width="43" height="31" viewBox="0 0 43 31" fill="none" xmlns="http://www.w3.org/2000/svg">
<path d="M8.2898 27.65H34.7102C36.6436 27.65 38.4978 26.882 39.8649 25.5149C41.232 24.1478 42 22.2936 42 20.3602V15.35C42 14.2626 41.568 13.2198 40.7991 12.4509C40.0302 11.682 38.9874 11.25 37.9 11.25C36.8126 11.25 35.7698 11.682 35.0009 12.4509C34.232 13.2198 33.8 14.2626 33.8 15.35V17.81C33.8 18.245 33.6272 18.6621 33.3197 18.9697C33.0121 19.2772 32.595 19.45 32.16 19.45H10.84C10.405 19.45 9.9879 19.2772 9.68034 18.9697C9.37278 18.6621 9.2 18.245 9.2 17.81V15.35C9.2 14.2626 8.76804 13.2198 7.99914 12.4509C7.23024 11.682 6.18739 11.25 5.1 11.25C4.01261 11.25 2.96976 11.682 2.20086 12.4509C1.43196 13.2198 1 14.2626 1 15.35V20.3602C1 22.2936 1.76803 24.1478 3.13513 25.5149C4.50224 26.882 6.35643 27.65 8.2898 27.65Z" stroke="black" stroke-width="2"/>
<path d="M37.8996 11.25C37.8996 9.3435 37.8996 8.3923 37.7418 7.601C37.4254 6.01021 36.6444 4.54897 35.4975 3.40209C34.3506 2.25521 32.8894 1.4742 31.2986 1.15785C30.5073 1 29.5561 1 27.6496 1H15.3496C13.4431 1 12.4919 1 11.7006 1.15785C10.1098 1.4742 8.64858 2.25521 7.5017 3.40209C6.35481 4.54897 5.57381 6.01021 5.25746 7.601C5.09961 8.3923 5.09961 9.3435 5.09961 11.25" stroke="black" stroke-width="2"/>
<path d="M37.8996 29.7004V27.6504M5.09961 29.7004V27.6504" stroke="black" stroke-width="2" stroke-linecap="round"/>
</svg>
