<svg width="61" height="38" viewBox="0 0 61 38" fill="none" xmlns="http://www.w3.org/2000/svg">
<path d="M59.61 7.29348H56.1921H1V1H59.61V7.29348Z" stroke="black" stroke-width="2" stroke-linecap="round" stroke-linejoin="round"/>
<path d="M56 37V8" stroke="black" stroke-width="2" stroke-linecap="round" stroke-linejoin="round"/>
<path d="M5 37V17.3277V8" stroke="black" stroke-width="2" stroke-linecap="round" stroke-linejoin="round"/>
<path d="M5 20H56" stroke="black" stroke-width="2" stroke-linecap="round" stroke-linejoin="round"/>
<path d="M30.3066 7.29297V18.2439" stroke="black" stroke-width="2" stroke-linecap="round" stroke-linejoin="round"/>
<path d="M17.2146 14.0468C17.8111 14.0468 18.2947 13.5633 18.2947 12.9668C18.2947 12.3703 17.8111 11.8867 17.2146 11.8867C16.6181 11.8867 16.1346 12.3703 16.1346 12.9668C16.1346 13.5633 16.6181 14.0468 17.2146 14.0468Z" fill="black" stroke="black" stroke-width="2" stroke-linecap="round" stroke-linejoin="round"/>
<path d="M43.25 14.0468C43.8465 14.0468 44.33 13.5633 44.33 12.9668C44.33 12.3703 43.8465 11.8867 43.25 11.8867C42.6535 11.8867 42.1699 12.3703 42.1699 12.9668C42.1699 13.5633 42.6535 14.0468 43.25 14.0468Z" fill="black" stroke="black" stroke-width="2" stroke-linecap="round" stroke-linejoin="round"/>
</svg>
