<svg width="54" height="54" viewBox="0 0 54 54" fill="none" xmlns="http://www.w3.org/2000/svg">
<path d="M26.7404 52.9999H2.30512C1.58552 52.9999 1 52.4136 1 51.6929V2.30705C1 1.58638 1.58552 1 2.30512 1H26.7404C27.46 1 28.0455 1.58638 28.0455 2.30705V51.6929C28.0455 52.4136 27.46 52.9999 26.7404 52.9999Z" stroke="black" stroke-width="2" stroke-linecap="round" stroke-linejoin="round"/>
<path d="M53.0006 36.3847V50.9503C53.0006 52.0827 52.0843 53.0004 50.9535 53.0004H30.0939C28.9631 53.0004 28.0469 52.0827 28.0469 50.9503V36.1967C28.0469 35.0553 28.9765 34.1332 30.1118 34.1466L50.9714 34.3346C52.0977 34.3436 53.0006 35.2612 53.0006 36.3847Z" stroke="black" stroke-width="2" stroke-linecap="round" stroke-linejoin="round"/>
<path d="M52.9992 42.5566H28.041" stroke="black" stroke-width="2" stroke-linecap="round" stroke-linejoin="round"/>
<path d="M40.5198 52.6997V42.5566" stroke="black" stroke-width="2" stroke-linecap="round" stroke-linejoin="round"/>
<path d="M38.7676 38.376H42.1198" stroke="black" stroke-width="2" stroke-linecap="round" stroke-linejoin="round"/>
<path d="M23.9473 25.0234V30.0233" stroke="black" stroke-width="2" stroke-linecap="round" stroke-linejoin="round"/>
<path d="M40.4456 10.4765C40.4456 10.4765 40.2578 8.31445 42.4926 8.31445C44.7274 8.31445 45.3219 11.224 43.9095 12.343C42.4971 13.4621 42.4703 14.4334 42.5597 15.5525L35.386 18.5605C33.6428 19.2901 34.1658 21.8908 36.0564 21.8908H49.4384C51.3558 21.8908 51.852 19.2319 50.0597 18.5426L43.0916 15.8479" stroke="black" stroke-width="2" stroke-linecap="round" stroke-linejoin="round"/>
<path d="M42.7461 2.15918V8.31395" stroke="black" stroke-width="2" stroke-linecap="round" stroke-linejoin="round"/>
<path d="M27.5233 1H53" stroke="black" stroke-width="2" stroke-linecap="round" stroke-linejoin="round"/>
</svg>
