<svg width="59" height="57" viewBox="0 0 59 57" fill="none" xmlns="http://www.w3.org/2000/svg">
<path d="M55.9337 41.0613C49.7249 55.2935 28.4542 61.0324 12.1275 50.8173C-4.19927 40.6022 -2.24466 10.9899 15.9217 2.95552C20.9071 0.751812 37.519 -1.23611 46.9655 6.74314C47.5404 7.2252 48.1429 7.80367 48.7591 8.46019L42.7114 14.3184L51.6842 12.1239C56.5362 19.1436 60.6156 30.332 55.9337 41.0613Z" stroke="black" stroke-width="2" stroke-linecap="round" stroke-linejoin="round"/>
<path d="M13.4096 30.9467C13.3176 35.5148 18.4778 46.0512 32.229 44.3204C45.9803 42.5896 47.6083 27.6916 44.4442 21.9115C41.2754 16.1313 33.0431 9.80945 23.546 12.9681C14.0443 16.1313 13.5016 26.5255 13.4142 30.9467H13.4096Z" stroke="black" stroke-width="2" stroke-linecap="round" stroke-linejoin="round"/>
<path d="M17.8448 30.5797C18.2173 39.5966 30.0599 42.7736 37.3863 37.0807C44.7126 31.3923 41.2771 19.4694 31.8674 17.2106C22.4577 14.9518 17.5734 23.9824 17.8448 30.5751V30.5797Z" stroke="black" stroke-width="2" stroke-linecap="round" stroke-linejoin="round"/>
<path d="M22.6417 30.9475C23.7593 34.8407 31.8721 37.7147 35.6709 32.4763C39.4697 27.2379 32.9574 20.232 28.4319 21.343C23.9064 22.4541 21.0136 25.2638 22.6417 30.9475Z" stroke="black" stroke-width="2" stroke-linecap="round" stroke-linejoin="round"/>
</svg>
