<svg width="69" height="53" viewBox="0 0 69 53" fill="none" xmlns="http://www.w3.org/2000/svg">
<path d="M62.201 22.2348V28.4069C60.0826 28.5408 58.4219 30.3019 58.4219 32.4404V34.1813C58.4219 36.4334 56.6072 38.2716 54.3592 38.2716H37.6669C35.4189 38.2716 33.584 36.4334 33.584 34.1813V32.4404C33.584 30.2613 31.8625 28.4637 29.6914 28.3906V22.2389C29.6914 18.3595 32.8468 15.1943 36.7231 15.1943H55.1896C59.0659 15.1943 62.201 18.3554 62.201 22.2389V22.2348Z" stroke="black" stroke-width="2" stroke-linecap="round" stroke-linejoin="round"/>
<path d="M68.0006 32.4406V37.4399C68.0006 44.103 62.5972 49.5203 55.9421 49.5203H35.9608C29.2896 49.5203 23.9023 44.107 23.9023 37.4399V32.4406C23.9023 30.2047 25.717 28.3908 27.9448 28.3908H29.6825C31.8576 28.4679 33.575 30.2655 33.575 32.4406V34.1814C33.575 36.4335 35.4099 38.2718 37.658 38.2718H54.3503C56.5983 38.2718 58.4129 36.4335 58.4129 34.1814V32.4406C58.4129 30.302 60.0777 28.5409 62.1921 28.407C62.2853 28.3867 62.3825 28.3867 62.4757 28.3867H63.95C66.1819 28.3867 67.9925 30.2047 67.9925 32.4365L68.0006 32.4406Z" stroke="black" stroke-width="2" stroke-linecap="round" stroke-linejoin="round"/>
<path d="M29.6953 47.7468V51.9995" stroke="black" stroke-width="2" stroke-linecap="round" stroke-linejoin="round"/>
<path d="M62.2168 47.7468V51.9995" stroke="black" stroke-width="2" stroke-linecap="round" stroke-linejoin="round"/>
<path d="M17.3365 3.0046L16.6965 11.0108C16.5953 12.2769 17.5957 13.3644 18.8635 13.3644H28.9494C30.2091 13.3644 31.2055 12.2931 31.1164 11.0352L30.5615 3.02895C30.4805 1.88868 29.5367 1 28.3945 1H19.5076C18.3734 1 17.4297 1.87245 17.3406 3.0046H17.3365Z" stroke="black" stroke-width="2" stroke-linecap="round" stroke-linejoin="round"/>
<path d="M23.8926 35.6017V13.3604" stroke="black" stroke-width="2" stroke-linecap="round" stroke-linejoin="round"/>
<path d="M19.5069 52.0003V34.7461H1V52.0003" stroke="black" stroke-width="2" stroke-linecap="round" stroke-linejoin="round"/>
<path d="M1 45.7747H19.5069" stroke="black" stroke-width="2" stroke-linecap="round" stroke-linejoin="round"/>
<path d="M7.6875 40.2236H12.8195" stroke="black" stroke-width="2" stroke-linecap="round" stroke-linejoin="round"/>
<path d="M7.68778 34.7452L5.32227 26.9622H15.319L13.156 34.7452" stroke="black" stroke-width="1.4" stroke-linecap="round" stroke-linejoin="round"/>
<path d="M12.82 26.9628C17.2067 23.4933 17.2796 19.4516 17.2796 19.4516C17.2796 19.4516 14.0392 19.9913 12.82 22.0243C11.6048 24.0533 11.1309 26.9628 11.1309 26.9628C11.1309 26.9628 12.9051 21.8214 12.5567 19.1797C12.2124 16.5421 10.252 15.3896 10.252 15.3896C10.252 15.3896 8.15782 17.4876 7.82163 19.5165C7.48543 21.5455 9.51071 26.9587 9.51071 26.9587C9.51071 26.9587 8.56693 21.7484 6.94267 20.3281C5.3184 18.9078 2.88807 19.3826 2.88807 19.3826C2.88807 19.3826 2.55188 21.7524 4.57715 24.0533C6.60242 26.3541 8.89907 27.3686 8.89907 27.3686C8.89907 27.3686 11.2646 28.1923 12.816 26.9628H12.82Z" stroke="black" stroke-width="1.4" stroke-linecap="round" stroke-linejoin="round"/>
</svg>
