<svg xmlns="http://www.w3.org/2000/svg">
  <symbol id="logo" width="70" height="54" viewBox="0 0 70 54" fill="none" xmlns="http://www.w3.org/2000/svg">
    <path d="M12.075 11.5V15.84H8.12V23.12C8.12 23.7267 8.27167 24.17 8.575 24.45C8.87833 24.73 9.24 24.8817 9.66 24.905C10.08 24.9283 10.4417 24.94 10.745 24.94C11.1417 24.94 11.585 24.9283 12.075 24.905V29C11.235 29.0933 10.465 29.14 9.765 29.14C7.89833 29.14 6.405 28.7433 5.285 27.95C4.165 27.1567 3.605 25.5467 3.605 23.12V15.84H0.56V11.5H3.605V7.965L8.12 6.6V11.5H12.075ZM30.6715 22.105H17.4765C18.0598 24.2983 19.7048 25.395 22.4115 25.395C24.1382 25.395 25.4448 24.8117 26.3315 23.645L29.9715 25.745C28.2448 28.2417 25.7015 29.49 22.3415 29.49C19.4482 29.49 17.1265 28.615 15.3765 26.865C13.6265 25.115 12.7515 22.91 12.7515 20.25C12.7515 17.6367 13.6148 15.4433 15.3415 13.67C17.0448 11.8967 19.2615 11.01 21.9915 11.01C24.5815 11.01 26.6932 11.8967 28.3265 13.67C30.0065 15.4433 30.8465 17.6367 30.8465 20.25C30.8465 20.74 30.7882 21.3583 30.6715 22.105ZM17.4065 18.605H26.3315C26.0748 17.4617 25.5498 16.5867 24.7565 15.98C23.9865 15.3733 23.0648 15.07 21.9915 15.07C20.7782 15.07 19.7748 15.385 18.9815 16.015C18.1882 16.6217 17.6632 17.485 17.4065 18.605ZM46.1117 13.565V11.5H50.6267V29H46.1117V26.935C44.7583 28.6383 42.8567 29.49 40.4067 29.49C38.0733 29.49 36.0667 28.6033 34.3867 26.83C32.73 25.0333 31.9017 22.84 31.9017 20.25C31.9017 17.6833 32.73 15.5017 34.3867 13.705C36.0667 11.9083 38.0733 11.01 40.4067 11.01C42.8567 11.01 44.7583 11.8617 46.1117 13.565ZM37.7817 23.82C38.6917 24.73 39.8467 25.185 41.2467 25.185C42.6467 25.185 43.8017 24.73 44.7117 23.82C45.645 22.8867 46.1117 21.6967 46.1117 20.25C46.1117 18.8033 45.645 17.625 44.7117 16.715C43.8017 15.7817 42.6467 15.315 41.2467 15.315C39.8467 15.315 38.6917 15.7817 37.7817 16.715C36.8717 17.625 36.4167 18.8033 36.4167 20.25C36.4167 21.6967 36.8717 22.8867 37.7817 23.82ZM62.5609 20.145L69.8059 29H64.5559L58.1859 21.055V29H53.6709V4.5H58.1859V19.2L64.2059 11.5H69.5959L62.5609 20.145Z" fill="currentColor"/>
    <path d="M10.6 34.2C12.1 34.2 13.2917 34.6667 14.175 35.6C15.0583 36.5167 15.5 37.7583 15.5 39.325V47H13.85V39.325C13.85 38.2083 13.55 37.3417 12.95 36.725C12.3667 36.1083 11.5333 35.8 10.45 35.8C9.2 35.8 8.20833 36.1917 7.475 36.975C6.75833 37.7583 6.4 38.9167 6.4 40.45V47H4.75V29.5H6.4V36.45C7.33333 34.95 8.73333 34.2 10.6 34.2ZM28.4154 45.425C27.1321 46.675 25.5821 47.3 23.7654 47.3C21.9154 47.3 20.3571 46.675 19.0904 45.425C17.8238 44.1583 17.1904 42.6 17.1904 40.75C17.1904 38.9 17.8238 37.35 19.0904 36.1C20.3571 34.8333 21.9154 34.2 23.7654 34.2C25.5988 34.2 27.1488 34.8333 28.4154 36.1C29.6988 37.35 30.3404 38.9 30.3404 40.75C30.3404 42.5833 29.6988 44.1417 28.4154 45.425ZM20.2654 44.275C21.2154 45.225 22.3821 45.7 23.7654 45.7C25.1488 45.7 26.3154 45.225 27.2654 44.275C28.2154 43.2917 28.6904 42.1167 28.6904 40.75C28.6904 39.3667 28.2154 38.2 27.2654 37.25C26.3154 36.2833 25.1488 35.8 23.7654 35.8C22.3821 35.8 21.2154 36.2833 20.2654 37.25C19.3154 38.2 18.8404 39.3667 18.8404 40.75C18.8404 42.1167 19.3154 43.2917 20.2654 44.275ZM41.1516 41.05V34.5H42.8016V47H41.1516V45.05C40.2182 46.55 38.8182 47.3 36.9516 47.3C35.4516 47.3 34.2599 46.8417 33.3766 45.925C32.4932 44.9917 32.0516 43.7417 32.0516 42.175V34.5H33.7016V42.175C33.7016 43.2917 33.9932 44.1583 34.5766 44.775C35.1766 45.3917 36.0182 45.7 37.1016 45.7C38.3516 45.7 39.3349 45.3083 40.0516 44.525C40.7849 43.7417 41.1516 42.5833 41.1516 41.05ZM46.842 37.775C46.842 38.7417 47.7003 39.45 49.417 39.9C49.9003 40.0167 50.217 40.1 50.367 40.15C50.517 40.1833 50.8087 40.275 51.242 40.425C51.692 40.5583 52.0003 40.675 52.167 40.775C52.3503 40.875 52.6003 41.0333 52.917 41.25C53.2337 41.45 53.4587 41.6583 53.592 41.875C53.7253 42.075 53.8503 42.3417 53.967 42.675C54.0837 42.9917 54.142 43.3333 54.142 43.7C54.142 44.7667 53.717 45.6333 52.867 46.3C52.0503 46.9667 50.967 47.3 49.617 47.3C48.4503 47.3 47.442 47.0417 46.592 46.525C45.742 45.9917 45.142 45.2917 44.792 44.425L46.192 43.6C46.4253 44.25 46.842 44.7667 47.442 45.15C48.0587 45.5167 48.7837 45.7 49.617 45.7C50.467 45.7 51.1587 45.5333 51.692 45.2C52.2253 44.8667 52.492 44.3667 52.492 43.7C52.492 42.7333 51.6337 42.025 49.917 41.575C49.4337 41.4583 49.117 41.3833 48.967 41.35C48.817 41.3 48.517 41.2083 48.067 41.075C47.6337 40.925 47.3253 40.8 47.142 40.7C46.9753 40.6 46.7337 40.45 46.417 40.25C46.1003 40.0333 45.8753 39.825 45.742 39.625C45.6087 39.4083 45.4837 39.1417 45.367 38.825C45.2503 38.4917 45.192 38.1417 45.192 37.775C45.192 36.7583 45.592 35.9083 46.392 35.225C47.2253 34.5417 48.2503 34.2 49.467 34.2C50.467 34.2 51.3503 34.425 52.117 34.875C52.9003 35.325 53.4753 35.95 53.842 36.75L52.467 37.55C52.0003 36.3833 51.0003 35.8 49.467 35.8C48.717 35.8 48.092 35.975 47.592 36.325C47.092 36.675 46.842 37.1583 46.842 37.775ZM61.5533 34.2C63.42 34.2 64.9117 34.8583 66.0283 36.175C67.1783 37.475 67.7533 39.0167 67.7533 40.8C67.7533 40.8833 67.7367 41.1417 67.7033 41.575H56.7283C56.895 42.825 57.4283 43.825 58.3283 44.575C59.2283 45.325 60.3533 45.7 61.7033 45.7C63.6033 45.7 64.945 44.9917 65.7283 43.575L67.1783 44.425C66.6283 45.325 65.87 46.0333 64.9033 46.55C63.9533 47.05 62.8783 47.3 61.6783 47.3C59.7117 47.3 58.1117 46.6833 56.8783 45.45C55.645 44.2167 55.0283 42.65 55.0283 40.75C55.0283 38.8667 55.6367 37.3083 56.8533 36.075C58.07 34.825 59.6367 34.2 61.5533 34.2ZM61.5533 35.8C60.2533 35.8 59.1617 36.1833 58.2783 36.95C57.4117 37.7167 56.895 38.725 56.7283 39.975H66.0533C65.87 38.6417 65.3617 37.6167 64.5283 36.9C63.6617 36.1667 62.67 35.8 61.5533 35.8Z" fill="currentColor"/>
  </symbol>

  <symbol id="local" width="28" height="28" viewBox="0 0 28 28" fill="none" xmlns="http://www.w3.org/2000/svg">
    <path d="M13.9994 16.532C11.5144 16.532 9.48438 14.5137 9.48438 12.017C9.48438 9.52034 11.5144 7.51367 13.9994 7.51367C16.4844 7.51367 18.5144 9.53201 18.5144 12.0287C18.5144 14.5253 16.4844 16.532 13.9994 16.532ZM13.9994 9.26367C12.4827 9.26367 11.2344 10.5003 11.2344 12.0287C11.2344 13.557 12.471 14.7937 13.9994 14.7937C15.5277 14.7937 16.7644 13.557 16.7644 12.0287C16.7644 10.5003 15.516 9.26367 13.9994 9.26367Z" fill="currentColor" />
    <path d="M14.0019 26.553C12.2752 26.553 10.5369 25.8997 9.18358 24.6047C5.74191 21.2913 1.93858 16.0063 3.37358 9.71801C4.66858 4.01301 9.65025 1.45801 14.0019 1.45801C14.0019 1.45801 14.0019 1.45801 14.0136 1.45801C18.3652 1.45801 23.3469 4.01301 24.6419 9.72968C26.0653 16.018 22.2619 21.2913 18.8202 24.6047C17.4669 25.8997 15.7286 26.553 14.0019 26.553ZM14.0019 3.20801C10.6069 3.20801 6.24358 5.01634 5.08858 10.103C3.82858 15.598 7.28191 20.3347 10.4086 23.333C12.4269 25.2813 15.5886 25.2813 17.6069 23.333C20.7219 20.3347 24.1752 15.598 22.9386 10.103C21.7719 5.01634 17.3969 3.20801 14.0019 3.20801Z" fill="currentColor" />
  </symbol>

  <symbol id="entr" width="24" height="24" viewBox="0 0 24 24" fill="none" xmlns="http://www.w3.org/2000/svg">
    <path d="M8.90039 7.56001C9.21039 3.96001 11.0604 2.49001 15.1104 2.49001H15.2404C19.7104 2.49001 21.5004 4.28001 21.5004 8.75001V15.27C21.5004 19.74 19.7104 21.53 15.2404 21.53H15.1104C11.0904 21.53 9.24039 20.08 8.91039 16.54" stroke="currentColor" stroke-width="1.5" stroke-linecap="round" stroke-linejoin="round" />
    <path d="M2 12H14.88" stroke="currentColor" stroke-width="1.5" stroke-linecap="round" stroke-linejoin="round" />
    <path d="M12.6504 8.64999L16.0004 12L12.6504 15.35" stroke="currentColor" stroke-width="1.5" stroke-linecap="round" stroke-linejoin="round" />
  </symbol>

  <symbol id="like" width="24" height="24" viewBox="0 0 24 24" fill="none" xmlns="http://www.w3.org/2000/svg">
    <path d="M12 21.6496C11.69 21.6496 11.39 21.6096 11.14 21.5196C7.32 20.2096 1.25 15.5596 1.25 8.68961C1.25 5.18961 4.08 2.34961 7.56 2.34961C9.25 2.34961 10.83 3.00961 12 4.18961C13.17 3.00961 14.75 2.34961 16.44 2.34961C19.92 2.34961 22.75 5.19961 22.75 8.68961C22.75 15.5696 16.68 20.2096 12.86 21.5196C12.61 21.6096 12.31 21.6496 12 21.6496ZM7.56 3.84961C4.91 3.84961 2.75 6.01961 2.75 8.68961C2.75 15.5196 9.32 19.3196 11.63 20.1096C11.81 20.1696 12.2 20.1696 12.38 20.1096C14.68 19.3196 21.26 15.5296 21.26 8.68961C21.26 6.01961 19.1 3.84961 16.45 3.84961C14.93 3.84961 13.52 4.55961 12.61 5.78961C12.33 6.16961 11.69 6.16961 11.41 5.78961C10.48 4.54961 9.08 3.84961 7.56 3.84961Z" fill="currentColor" />
  </symbol>

  <symbol id="basket" width="24" height="24" viewBox="0 0 24 24" fill="none" xmlns="http://www.w3.org/2000/svg">
    <path d="M7.5 7.66999V6.69999C7.5 4.44999 9.31 2.23999 11.56 2.02999C14.24 1.76999 16.5 3.87999 16.5 6.50999V7.88999" stroke="currentColor" stroke-width="1.5" stroke-miterlimit="10" stroke-linecap="round" stroke-linejoin="round" />
    <path d="M9.0008 22H15.0008C19.0208 22 19.7408 20.39 19.9508 18.43L20.7008 12.43C20.9708 9.99 20.2708 8 16.0008 8H8.0008C3.7308 8 3.0308 9.99 3.3008 12.43L4.0508 18.43C4.2608 20.39 4.9808 22 9.0008 22Z" stroke="currentColor" stroke-width="1.5" stroke-miterlimit="10" stroke-linecap="round" stroke-linejoin="round" />
  </symbol>

  <symbol id="searchBtn" width="24" height="24" viewBox="0 0 24 24" fill="none" xmlns="http://www.w3.org/2000/svg">
    <path d="M11.5 21C16.7467 21 21 16.7467 21 11.5C21 6.25329 16.7467 2 11.5 2C6.25329 2 2 6.25329 2 11.5C2 16.7467 6.25329 21 11.5 21Z" stroke="currentColor" stroke-width="1.5" stroke-linecap="round" stroke-linejoin="round" />
    <path d="M22 22L20 20" stroke="currentColor" stroke-width="1.5" stroke-linecap="round" stroke-linejoin="round" />
  </symbol>

  <symbol id="mainSwiperBtn1" width="58" height="15" viewBox="0 0 58 15" fill="none" xmlns="http://www.w3.org/2000/svg">
    <path d="M2 7L9 1M2 7H58M2 7L9 14" stroke="currentColor" stroke-width="1.5" />
  </symbol>

  <symbol id="mainSwiperBtn2" width="58" height="15" viewBox="0 0 58 15" fill="none" xmlns="http://www.w3.org/2000/svg">
    <path d="M56 8L49 14M56 8H0M56 8L49 1" stroke="currentColor" stroke-width="1.5" />
  </symbol>

</svg>