<svg xmlns="http://www.w3.org/2000/svg">
  <symbol id="logo" width="146" height="51" viewBox="0 0 146 51" fill="none" xmlns="http://www.w3.org/2000/svg">
    <path d="M10.3791 9.8049H6.40685V17.5456C6.40685 19.6098 7.75228 19.5776 10.3791 19.4485V22.5771C5.06141 23.2221 2.94715 21.7385 2.94715 17.5456V9.8049H0V6.45059H2.94715V2.96727L6.40685 1.93518V6.45059H10.3791V9.8049Z" fill="black" />
    <path d="M14.6219 15.9975C15.1665 18.5132 17.1846 19.8033 19.7473 19.8033C21.6694 19.8033 23.1109 18.9325 23.8798 17.8036L26.7308 19.4808C25.2572 21.674 22.8547 22.9964 19.7153 22.9964C14.4297 22.9964 11.002 19.3518 11.002 14.5138C11.002 9.7404 14.4297 6.03131 19.459 6.03131C24.2321 6.03131 27.4996 9.90166 27.4996 14.5461C27.4996 15.0299 27.4356 15.5459 27.3715 15.9975H14.6219ZM14.5898 13.1592H24.0079C23.5274 10.3855 21.5092 9.1921 19.427 9.1921C16.8322 9.1921 15.0704 10.7402 14.5898 13.1592Z" fill="black" />
    <path d="M42.1746 6.45059H45.6343V22.5771H42.1746V20.2549C40.9573 21.9643 39.0672 22.9964 36.5686 22.9964C32.2119 22.9964 28.592 19.2873 28.592 14.5138C28.592 9.70814 32.2119 6.03131 36.5686 6.03131C39.0672 6.03131 40.9573 7.0634 42.1746 8.74055V6.45059ZM37.1132 19.6743C39.9962 19.6743 42.1746 17.5134 42.1746 14.5138C42.1746 11.5143 39.9962 9.35336 37.1132 9.35336C34.2301 9.35336 32.0517 11.5143 32.0517 14.5138C32.0517 17.5134 34.2301 19.6743 37.1132 19.6743Z" fill="black" />
    <path d="M62.8649 22.5771H58.7325L52.1655 15.1266V22.5771H48.7058V0H52.1655V13.5785L58.3801 6.45059H62.6086L55.5611 14.3526L62.8649 22.5771Z" fill="black" />
    <path d="M72.6561 6.03131C76.244 6.03131 78.8067 8.48253 78.8067 12.6754V22.5771H75.347V13.0302C75.347 10.579 73.9375 9.28885 71.7592 9.28885C69.4847 9.28885 67.6908 10.6435 67.6908 13.9333V22.5771H64.2311V0H67.6908V8.51478C68.7479 6.83763 70.4778 6.03131 72.6561 6.03131Z" fill="black" />
    <path d="M89.131 22.9964C84.454 22.9964 80.6739 19.2873 80.6739 14.5138C80.6739 9.70814 84.454 6.03131 89.131 6.03131C93.84 6.03131 97.588 9.70814 97.588 14.5138C97.588 19.2873 93.84 22.9964 89.131 22.9964ZM89.131 19.6098C91.95 19.6098 94.1283 17.4489 94.1283 14.5138C94.1283 11.5788 91.95 9.41787 89.131 9.41787C86.312 9.41787 84.1336 11.5788 84.1336 14.5138C84.1336 17.4489 86.312 19.6098 89.131 19.6098Z" fill="black" />
    <path d="M110.551 6.45059H114.011V22.5771H110.551V20.5129C109.494 22.19 107.764 22.9964 105.586 22.9964C101.998 22.9964 99.435 20.5451 99.435 16.3523V6.45059H102.895V15.9975C102.895 18.4487 104.304 19.7388 106.483 19.7388C108.757 19.7388 110.551 18.3842 110.551 15.0944V6.45059Z" fill="black" />
    <path d="M120.109 10.9015C120.109 13.8365 128.726 12.0626 128.726 18.0294C128.726 21.2547 125.939 22.9964 122.479 22.9964C119.276 22.9964 116.969 21.545 115.944 19.2228L118.923 17.4811C119.436 18.9325 120.717 19.8033 122.479 19.8033C124.017 19.8033 125.202 19.2873 125.202 17.9972C125.202 15.1266 116.585 16.7393 116.585 10.966C116.585 7.93423 119.18 6.03131 122.447 6.03131C125.074 6.03131 127.252 7.25692 128.373 9.38561L125.458 11.0305C124.882 9.77265 123.76 9.1921 122.447 9.1921C121.198 9.1921 120.109 9.7404 120.109 10.9015Z" fill="black" />
    <path d="M133.122 15.9975C133.667 18.5132 135.685 19.8033 138.248 19.8033C140.17 19.8033 141.611 18.9325 142.38 17.8036L145.231 19.4808C143.758 21.674 141.355 22.9964 138.216 22.9964C132.93 22.9964 129.502 19.3518 129.502 14.5138C129.502 9.7404 132.93 6.03131 137.959 6.03131C142.733 6.03131 146 9.90166 146 14.5461C146 15.0299 145.936 15.5459 145.872 15.9975H133.122ZM133.09 13.1592H142.508C142.028 10.3855 140.01 9.1921 137.927 9.1921C135.333 9.1921 133.571 10.7402 133.09 13.1592Z" fill="black" />
    <path d="M22.6882 39.7115V40.7436H18.6199V47.7747H17.5628V39.7115H22.6882Z" fill="black" />
    <path d="M30.0699 39.7115H31.127V47.7747H30.0699V46.1943C29.3331 47.3769 28.2546 47.9682 26.8344 47.9682C25.6919 47.9682 24.7148 47.5597 23.9033 46.7426C23.1024 45.9255 22.702 44.9257 22.702 43.7431C22.702 42.5605 23.1024 41.5606 23.9033 40.7436C24.7148 39.9265 25.6919 39.5179 26.8344 39.5179C28.2546 39.5179 29.3331 40.1092 30.0699 41.2919V39.7115ZM24.6721 46.0169C25.2808 46.6297 26.0282 46.9361 26.9145 46.9361C27.8008 46.9361 28.5483 46.6297 29.1569 46.0169C29.7656 45.3934 30.0699 44.6354 30.0699 43.7431C30.0699 42.8508 29.7656 42.0982 29.1569 41.4854C28.5483 40.8618 27.8008 40.55 26.9145 40.55C26.0282 40.55 25.2808 40.8618 24.6721 41.4854C24.0635 42.0982 23.7591 42.8508 23.7591 43.7431C23.7591 44.6354 24.0635 45.3934 24.6721 46.0169Z" fill="black" />
    <path d="M39.4518 39.7115V47.7747H38.3946V40.7436H34.7748V44.3398C34.7748 45.6836 34.5185 46.6082 34.006 47.1135C33.5041 47.6188 32.81 47.8392 31.9237 47.7747V46.7749C32.5324 46.8394 32.9809 46.6942 33.2692 46.3394C33.5682 45.9847 33.7176 45.3181 33.7176 44.3398V39.7115H39.4518Z" fill="black" />
    <path d="M44.9105 39.5179C46.0957 39.5179 47.0514 39.9426 47.7775 40.7919C48.5143 41.6305 48.8827 42.625 48.8827 43.7753C48.8827 43.8936 48.872 44.0602 48.8507 44.2753H41.8192C41.926 45.0923 42.2677 45.7428 42.8443 46.2266C43.4316 46.6996 44.1523 46.9361 45.0066 46.9361C45.6152 46.9361 46.1385 46.8125 46.5763 46.5652C47.0247 46.3072 47.3611 45.9739 47.5853 45.5654L48.5143 46.1137C48.162 46.6835 47.6814 47.135 47.0728 47.4683C46.4641 47.8016 45.7701 47.9682 44.9906 47.9682C43.7306 47.9682 42.7055 47.5704 41.9153 46.7749C41.1251 45.9793 40.73 44.9687 40.73 43.7431C40.73 42.539 41.1198 41.5338 41.8993 40.7274C42.6788 39.9211 43.6825 39.5179 44.9105 39.5179ZM44.9105 40.55C44.0776 40.55 43.3782 40.8027 42.8122 41.308C42.257 41.8025 41.926 42.4476 41.8192 43.2432H47.7936C47.6868 42.3938 47.3611 41.7326 46.8165 41.2596C46.2719 40.7866 45.6366 40.55 44.9105 40.55Z" fill="black" />
    <path d="M54.3763 39.5179C55.5189 39.5179 56.4906 39.9265 57.2915 40.7436C58.103 41.5606 58.5088 42.5605 58.5088 43.7431C58.5088 44.9257 58.103 45.9255 57.2915 46.7426C56.4906 47.5597 55.5189 47.9682 54.3763 47.9682C52.9562 47.9682 51.8777 47.3769 51.1409 46.1943V51H50.0838V39.7115H51.1409V41.2919C51.8777 40.1092 52.9562 39.5179 54.3763 39.5179ZM52.0539 46.0169C52.6625 46.6297 53.41 46.9361 54.2963 46.9361C55.1825 46.9361 55.93 46.6297 56.5387 46.0169C57.1473 45.3934 57.4516 44.6354 57.4516 43.7431C57.4516 42.8508 57.1473 42.0982 56.5387 41.4854C55.93 40.8618 55.1825 40.55 54.2963 40.55C53.41 40.55 52.6625 40.8618 52.0539 41.4854C51.4452 42.0982 51.1409 42.8508 51.1409 43.7431C51.1409 44.6354 51.4452 45.3934 52.0539 46.0169Z" fill="black" />
    <path d="M63.486 39.5179C64.6712 39.5179 65.6269 39.9426 66.353 40.7919C67.0898 41.6305 67.4582 42.625 67.4582 43.7753C67.4582 43.8936 67.4475 44.0602 67.4262 44.2753H60.3946C60.5014 45.0923 60.8431 45.7428 61.4197 46.2266C62.007 46.6996 62.7278 46.9361 63.5821 46.9361C64.1907 46.9361 64.7139 46.8125 65.1517 46.5652C65.6002 46.3072 65.9366 45.9739 66.1608 45.5654L67.0898 46.1137C66.7374 46.6835 66.2569 47.135 65.6483 47.4683C65.0396 47.8016 64.3455 47.9682 63.566 47.9682C62.306 47.9682 61.2809 47.5704 60.4908 46.7749C59.7006 45.9793 59.3055 44.9687 59.3055 43.7431C59.3055 42.539 59.6952 41.5338 60.4747 40.7274C61.2542 39.9211 62.258 39.5179 63.486 39.5179ZM63.486 40.55C62.6531 40.55 61.9536 40.8027 61.3877 41.308C60.8325 41.8025 60.5014 42.4476 60.3946 43.2432H66.369C66.2623 42.3938 65.9366 41.7326 65.392 41.2596C64.8474 40.7866 64.2121 40.55 63.486 40.55Z" fill="black" />
    <path d="M74.269 39.7115V47.7747H73.2118V44.6784H71.8344L69.3677 47.7747H68.0223L70.553 44.6462C69.9123 44.5494 69.3838 44.2806 68.9673 43.8398C68.5509 43.3991 68.3426 42.8561 68.3426 42.2111C68.3426 41.48 68.5989 40.8833 69.1115 40.421C69.6347 39.948 70.27 39.7115 71.0175 39.7115H74.269ZM71.0175 43.6786H73.2118V40.7436H71.0175C70.569 40.7436 70.1846 40.8779 69.8643 41.1467C69.5546 41.4155 69.3998 41.7703 69.3998 42.2111C69.3998 42.6519 69.5546 43.0066 69.8643 43.2754C70.1846 43.5442 70.569 43.6786 71.0175 43.6786Z" fill="black" />
    <path d="M87.403 39.7115V47.7747H86.3459V41.3402L83.5429 45.9202H83.4147L80.6118 41.3402V47.7747H79.5546V39.7115H80.7719L83.4788 44.1301L86.1857 39.7115H87.403Z" fill="black" />
    <path d="M92.863 39.5179C94.0482 39.5179 95.0039 39.9426 95.73 40.7919C96.4668 41.6305 96.8352 42.625 96.8352 43.7753C96.8352 43.8936 96.8245 44.0602 96.8032 44.2753H89.7717C89.8784 45.0923 90.2201 45.7428 90.7968 46.2266C91.3841 46.6996 92.1048 46.9361 92.9591 46.9361C93.5677 46.9361 94.0909 46.8125 94.5287 46.5652C94.9772 46.3072 95.3136 45.9739 95.5378 45.5654L96.4668 46.1137C96.1144 46.6835 95.6339 47.135 95.0253 47.4683C94.4166 47.8016 93.7225 47.9682 92.9431 47.9682C91.683 47.9682 90.6579 47.5704 89.8678 46.7749C89.0776 45.9793 88.6825 44.9687 88.6825 43.7431C88.6825 42.539 89.0723 41.5338 89.8518 40.7274C90.6312 39.9211 91.635 39.5179 92.863 39.5179ZM92.863 40.55C92.0301 40.55 91.3307 40.8027 90.7647 41.308C90.2095 41.8025 89.8784 42.4476 89.7717 43.2432H95.746C95.6393 42.3938 95.3136 41.7326 94.769 41.2596C94.2244 40.7866 93.5891 40.55 92.863 40.55Z" fill="black" />
    <path d="M101.592 47.9682C100.439 47.9682 99.4778 47.5866 98.709 46.8232C97.9401 46.0492 97.5557 45.0493 97.5557 43.8237C97.5557 42.4476 97.7586 41.394 98.1644 40.6629C98.5701 39.9211 99.3924 39.2492 100.631 38.6471C100.866 38.5289 101.176 38.3891 101.56 38.2278C101.955 38.0666 102.249 37.9375 102.441 37.8408C102.644 37.744 102.863 37.6204 103.098 37.4699C103.333 37.3086 103.509 37.1312 103.626 36.9377C103.744 36.7442 103.818 36.513 103.85 36.2443L104.683 36.7281C104.641 36.9861 104.555 37.228 104.427 37.4538C104.299 37.6795 104.165 37.8623 104.027 38.0021C103.898 38.1418 103.69 38.2977 103.402 38.4697C103.124 38.631 102.905 38.7492 102.745 38.8245C102.596 38.889 102.329 39.0019 101.944 39.1632C101.571 39.3244 101.32 39.4319 101.192 39.4857C100.444 39.8082 99.8942 40.1469 99.5418 40.5017C99.1895 40.8457 98.9385 41.2972 98.789 41.8563C99.1521 41.3725 99.6113 41.0177 100.167 40.7919C100.732 40.5554 101.282 40.4372 101.816 40.4372C102.884 40.4372 103.765 40.7919 104.459 41.5015C105.164 42.2003 105.516 43.098 105.516 44.1946C105.516 45.2805 105.143 46.1836 104.395 46.9039C103.658 47.6134 102.724 47.9682 101.592 47.9682ZM101.592 46.9039C102.425 46.9039 103.108 46.6512 103.642 46.1459C104.187 45.6299 104.459 44.9794 104.459 44.1946C104.459 43.3991 104.203 42.7486 103.69 42.2433C103.188 41.7273 102.516 41.4692 101.672 41.4692C100.914 41.4692 100.225 41.7111 99.6059 42.1949C98.9866 42.668 98.6769 43.3023 98.6769 44.0979C98.6769 44.9149 98.9546 45.5869 99.5098 46.1137C100.076 46.6405 100.77 46.9039 101.592 46.9039Z" fill="black" />
    <path d="M110.344 39.5179C111.529 39.5179 112.484 39.9426 113.211 40.7919C113.947 41.6305 114.316 42.625 114.316 43.7753C114.316 43.8936 114.305 44.0602 114.284 44.2753H107.252C107.359 45.0923 107.701 45.7428 108.277 46.2266C108.865 46.6996 109.585 46.9361 110.44 46.9361C111.048 46.9361 111.571 46.8125 112.009 46.5652C112.458 46.3072 112.794 45.9739 113.018 45.5654L113.947 46.1137C113.595 46.6835 113.114 47.135 112.506 47.4683C111.897 47.8016 111.203 47.9682 110.424 47.9682C109.164 47.9682 108.138 47.5704 107.348 46.7749C106.558 45.9793 106.163 44.9687 106.163 43.7431C106.163 42.539 106.553 41.5338 107.332 40.7274C108.112 39.9211 109.116 39.5179 110.344 39.5179ZM110.344 40.55C109.511 40.55 108.811 40.8027 108.245 41.308C107.69 41.8025 107.359 42.4476 107.252 43.2432H113.227C113.12 42.3938 112.794 41.7326 112.25 41.2596C111.705 40.7866 111.07 40.55 110.344 40.55Z" fill="black" />
    <path d="M121.771 39.7115V47.7747H120.714V40.7436H117.094V44.3398C117.094 45.6836 116.838 46.6082 116.325 47.1135C115.823 47.6188 115.129 47.8392 114.243 47.7747V46.7749C114.852 46.8394 115.3 46.6942 115.588 46.3394C115.887 45.9847 116.037 45.3181 116.037 44.3398V39.7115H121.771Z" fill="black" />
    <path d="M129.36 39.7115H130.257V47.7747H129.2V41.566L124.427 47.7747H123.53V39.7115H124.587V45.9202L129.36 39.7115Z" fill="black" />
  </symbol>

  <symbol id="logo1" width="110" height="18" viewBox="0 0 110 18" fill="none" xmlns="http://www.w3.org/2000/svg">
    <path d="M8.20764 7.49595H5.23164V13.256C5.23164 14.792 6.23964 14.768 8.20764 14.672V17C4.22364 17.48 2.63964 16.376 2.63964 13.256V7.49595H0.431641V4.99995H2.63964V2.40795L5.23164 1.63995V4.99995H8.20764V7.49595Z" fill="black" />
    <path d="M11.3863 12.104C11.7943 13.976 13.3063 14.936 15.2263 14.936C16.6663 14.936 17.7463 14.288 18.3223 13.448L20.4583 14.696C19.3543 16.328 17.5543 17.312 15.2023 17.312C11.2423 17.312 8.67433 14.6 8.67433 11C8.67433 7.44795 11.2423 4.68795 15.0103 4.68795C18.5863 4.68795 21.0343 7.56795 21.0343 11.024C21.0343 11.384 20.9863 11.768 20.9383 12.104H11.3863ZM11.3623 9.99195H18.4183C18.0583 7.92795 16.5463 7.03995 14.9863 7.03995C13.0423 7.03995 11.7223 8.19195 11.3623 9.99195Z" fill="black" />
    <path d="M32.0288 4.99995H34.6208V17H32.0288V15.272C31.1168 16.544 29.7008 17.312 27.8288 17.312C24.5648 17.312 21.8528 14.552 21.8528 11C21.8528 7.42395 24.5648 4.68795 27.8288 4.68795C29.7008 4.68795 31.1168 5.45595 32.0288 6.70395V4.99995ZM28.2368 14.84C30.3968 14.84 32.0288 13.232 32.0288 11C32.0288 8.76795 30.3968 7.15995 28.2368 7.15995C26.0768 7.15995 24.4448 8.76795 24.4448 11C24.4448 13.232 26.0768 14.84 28.2368 14.84Z" fill="black" />
    <path d="M47.53 17H44.434L39.514 11.456V17H36.922V0.199951H39.514V10.304L44.17 4.99995H47.338L42.058 10.88L47.53 17Z" fill="black" />
    <path d="M54.8655 4.68795C57.5535 4.68795 59.4735 6.51195 59.4735 9.63195V17H56.8815V9.89595C56.8815 8.07195 55.8255 7.11195 54.1935 7.11195C52.4895 7.11195 51.1455 8.11995 51.1455 10.568V17H48.5535V0.199951H51.1455V6.53595C51.9375 5.28795 53.2335 4.68795 54.8655 4.68795Z" fill="black" />
    <path d="M67.2085 17.312C63.7045 17.312 60.8725 14.552 60.8725 11C60.8725 7.42395 63.7045 4.68795 67.2085 4.68795C70.7365 4.68795 73.5445 7.42395 73.5445 11C73.5445 14.552 70.7365 17.312 67.2085 17.312ZM67.2085 14.792C69.3205 14.792 70.9525 13.184 70.9525 11C70.9525 8.81595 69.3205 7.20795 67.2085 7.20795C65.0965 7.20795 63.4645 8.81595 63.4645 11C63.4645 13.184 65.0965 14.792 67.2085 14.792Z" fill="black" />
    <path d="M83.2562 4.99995H85.8482V17H83.2562V15.464C82.4642 16.712 81.1682 17.312 79.5362 17.312C76.8482 17.312 74.9282 15.488 74.9282 12.368V4.99995H77.5202V12.104C77.5202 13.928 78.5762 14.888 80.2082 14.888C81.9122 14.888 83.2562 13.88 83.2562 11.432V4.99995Z" fill="black" />
    <path d="M90.4168 8.31195C90.4168 10.496 96.8728 9.17595 96.8728 13.616C96.8728 16.016 94.7848 17.312 92.1928 17.312C89.7928 17.312 88.0648 16.232 87.2968 14.504L89.5288 13.208C89.9128 14.288 90.8728 14.936 92.1928 14.936C93.3448 14.936 94.2328 14.552 94.2328 13.592C94.2328 11.456 87.7768 12.656 87.7768 8.35995C87.7768 6.10395 89.7208 4.68795 92.1688 4.68795C94.1368 4.68795 95.7688 5.59995 96.6088 7.18395L94.4248 8.40795C93.9928 7.47195 93.1528 7.03995 92.1688 7.03995C91.2328 7.03995 90.4168 7.44795 90.4168 8.31195Z" fill="black" />
    <path d="M100.167 12.104C100.575 13.976 102.087 14.936 104.007 14.936C105.447 14.936 106.527 14.288 107.103 13.448L109.239 14.696C108.135 16.328 106.335 17.312 103.983 17.312C100.023 17.312 97.4546 14.6 97.4546 11C97.4546 7.44795 100.023 4.68795 103.791 4.68795C107.367 4.68795 109.815 7.56795 109.815 11.024C109.815 11.384 109.767 11.768 109.719 12.104H100.167ZM100.143 9.99195H107.199C106.839 7.92795 105.327 7.03995 103.767 7.03995C101.823 7.03995 100.503 8.19195 100.143 9.99195Z" fill="black" />
  </symbol>

  <symbol id="local" width="28" height="28" viewBox="0 0 28 28" fill="none" xmlns="http://www.w3.org/2000/svg">
    <path d="M13.9994 16.532C11.5144 16.532 9.48438 14.5137 9.48438 12.017C9.48438 9.52034 11.5144 7.51367 13.9994 7.51367C16.4844 7.51367 18.5144 9.53201 18.5144 12.0287C18.5144 14.5253 16.4844 16.532 13.9994 16.532ZM13.9994 9.26367C12.4827 9.26367 11.2344 10.5003 11.2344 12.0287C11.2344 13.557 12.471 14.7937 13.9994 14.7937C15.5277 14.7937 16.7644 13.557 16.7644 12.0287C16.7644 10.5003 15.516 9.26367 13.9994 9.26367Z" fill="currentColor" />
    <path d="M14.0019 26.553C12.2752 26.553 10.5369 25.8997 9.18358 24.6047C5.74191 21.2913 1.93858 16.0063 3.37358 9.71801C4.66858 4.01301 9.65025 1.45801 14.0019 1.45801C14.0019 1.45801 14.0019 1.45801 14.0136 1.45801C18.3652 1.45801 23.3469 4.01301 24.6419 9.72968C26.0653 16.018 22.2619 21.2913 18.8202 24.6047C17.4669 25.8997 15.7286 26.553 14.0019 26.553ZM14.0019 3.20801C10.6069 3.20801 6.24358 5.01634 5.08858 10.103C3.82858 15.598 7.28191 20.3347 10.4086 23.333C12.4269 25.2813 15.5886 25.2813 17.6069 23.333C20.7219 20.3347 24.1752 15.598 22.9386 10.103C21.7719 5.01634 17.3969 3.20801 14.0019 3.20801Z" fill="currentColor" />
  </symbol>

  <symbol id="entr" width="24" height="24" viewBox="0 0 24 24" fill="none" xmlns="http://www.w3.org/2000/svg">
    <path d="M8.90039 7.56001C9.21039 3.96001 11.0604 2.49001 15.1104 2.49001H15.2404C19.7104 2.49001 21.5004 4.28001 21.5004 8.75001V15.27C21.5004 19.74 19.7104 21.53 15.2404 21.53H15.1104C11.0904 21.53 9.24039 20.08 8.91039 16.54" stroke="currentColor" stroke-width="1.5" stroke-linecap="round" stroke-linejoin="round" />
    <path d="M2 12H14.88" stroke="currentColor" stroke-width="1.5" stroke-linecap="round" stroke-linejoin="round" />
    <path d="M12.6504 8.64999L16.0004 12L12.6504 15.35" stroke="currentColor" stroke-width="1.5" stroke-linecap="round" stroke-linejoin="round" />
  </symbol>

  <symbol id="like" width="24" height="24" viewBox="0 0 24 24" fill="none" xmlns="http://www.w3.org/2000/svg">
    <path d="M12 21.6496C11.69 21.6496 11.39 21.6096 11.14 21.5196C7.32 20.2096 1.25 15.5596 1.25 8.68961C1.25 5.18961 4.08 2.34961 7.56 2.34961C9.25 2.34961 10.83 3.00961 12 4.18961C13.17 3.00961 14.75 2.34961 16.44 2.34961C19.92 2.34961 22.75 5.19961 22.75 8.68961C22.75 15.5696 16.68 20.2096 12.86 21.5196C12.61 21.6096 12.31 21.6496 12 21.6496ZM7.56 3.84961C4.91 3.84961 2.75 6.01961 2.75 8.68961C2.75 15.5196 9.32 19.3196 11.63 20.1096C11.81 20.1696 12.2 20.1696 12.38 20.1096C14.68 19.3196 21.26 15.5296 21.26 8.68961C21.26 6.01961 19.1 3.84961 16.45 3.84961C14.93 3.84961 13.52 4.55961 12.61 5.78961C12.33 6.16961 11.69 6.16961 11.41 5.78961C10.48 4.54961 9.08 3.84961 7.56 3.84961Z" fill="currentColor" />
  </symbol>

  <symbol id="basket" width="24" height="24" viewBox="0 0 24 24" fill="none" xmlns="http://www.w3.org/2000/svg">
    <path d="M7.5 7.66999V6.69999C7.5 4.44999 9.31 2.23999 11.56 2.02999C14.24 1.76999 16.5 3.87999 16.5 6.50999V7.88999" stroke="currentColor" stroke-width="1.5" stroke-miterlimit="10" stroke-linecap="round" stroke-linejoin="round" />
    <path d="M9.0008 22H15.0008C19.0208 22 19.7408 20.39 19.9508 18.43L20.7008 12.43C20.9708 9.99 20.2708 8 16.0008 8H8.0008C3.7308 8 3.0308 9.99 3.3008 12.43L4.0508 18.43C4.2608 20.39 4.9808 22 9.0008 22Z" stroke="currentColor" stroke-width="1.5" stroke-miterlimit="10" stroke-linecap="round" stroke-linejoin="round" />
  </symbol>

  <symbol id="ovel" width="24" height="24" viewBox="0 0 24 24" fill="none" xmlns="http://www.w3.org/2000/svg">
    <path d="M7 11C6.07003 11 5.60504 11 5.22354 11.1022C4.18827 11.3796 3.37962 12.1883 3.10222 13.2235C3 13.605 3 14.07 3 15V16.2C3 17.8802 3 18.7202 3.32698 19.362C3.6146 19.9265 4.07354 20.3854 4.63803 20.673C5.27976 21 6.11984 21 7.8 21H16.2C17.8802 21 18.7202 21 19.362 20.673C19.9265 20.3854 20.3854 19.9265 20.673 19.362C21 18.7202 21 17.8802 21 16.2V15C21 14.07 21 13.605 20.8978 13.2235C20.6204 12.1883 19.8117 11.3796 18.7765 11.1022C18.395 11 17.93 11 17 11M16 7L12 3M12 3L8 7M12 3V15" stroke="currentColor" stroke-width="1.5" stroke-linecap="round" stroke-linejoin="round" />
  </symbol>

  <symbol id="searchBtn" width="24" height="24" viewBox="0 0 24 24" fill="none" xmlns="http://www.w3.org/2000/svg">
    <path d="M11.5 21C16.7467 21 21 16.7467 21 11.5C21 6.25329 16.7467 2 11.5 2C6.25329 2 2 6.25329 2 11.5C2 16.7467 6.25329 21 11.5 21Z" stroke="currentColor" stroke-width="1.5" stroke-linecap="round" stroke-linejoin="round" />
    <path d="M22 22L20 20" stroke="currentColor" stroke-width="1.5" stroke-linecap="round" stroke-linejoin="round" />
  </symbol>

  <symbol id="mainSwiperBtn1" width="58" height="15" viewBox="0 0 58 15" fill="none" xmlns="http://www.w3.org/2000/svg">
    <path d="M2 7L9 1M2 7H58M2 7L9 14" stroke="currentColor" stroke-width="1.5" />
  </symbol>

  <symbol id="mainSwiperBtn2" width="58" height="15" viewBox="0 0 58 15" fill="none" xmlns="http://www.w3.org/2000/svg">
    <path d="M56 8L49 14M56 8H0M56 8L49 1" stroke="currentColor" stroke-width="1.5" />
  </symbol>

  <symbol id="detailedSwiperBtn1" width="44" height="16" viewBox="0 0 44 16" fill="none" xmlns="http://www.w3.org/2000/svg">
    <path d="M43 8L36.0181 15M43 8L0 8M43 8L36.0181 1" stroke="currentColor" />
  </symbol>

  <symbol id="detailedSwiperBtn2" width="44" height="16" viewBox="0 0 44 16" fill="none" xmlns="http://www.w3.org/2000/svg">
    <path d="M1 8L7.98188 1M1 8L44 8M1 8L7.98188 15" stroke="currentColor" />
  </symbol>

  <symbol id="infoArr" width="24" height="24" viewBox="0 0 24 24" fill="none" xmlns="http://www.w3.org/2000/svg">
    <path d="M11.5 0V22.5M11.5 22.5L22.5 13.5M11.5 22.5L1 13.5" stroke="currentColor" stroke-width="2" />
  </symbol>

  <symbol id="tg" width="31" height="31" viewBox="0 0 31 31" fill="none" xmlns="http://www.w3.org/2000/svg">
    <g clip-path="url(#clip0_58_267)">
      <path d="M15.5 31C24.0604 31 31 24.0604 31 15.5C31 6.93959 24.0604 0 15.5 0C6.93959 0 0 6.93959 0 15.5C0 24.0604 6.93959 31 15.5 31Z" fill="#262626" />
      <path fill-rule="evenodd" clip-rule="evenodd" d="M7.01562 15.335C11.5354 13.3665 14.5486 12.0676 16.0552 11.4414C20.3611 9.64957 21.2539 9.33957 21.8367 9.33027C21.9638 9.32717 22.2521 9.36127 22.4381 9.51007C22.5962 9.63717 22.6396 9.80767 22.6582 9.92857C22.6768 10.0495 22.7047 10.3254 22.683 10.5393C22.4505 12.9914 21.4399 18.9372 20.9284 21.6838C20.7114 22.8463 20.2836 23.2338 19.8682 23.2741C18.9692 23.3578 18.2841 22.6789 17.413 22.1085C16.049 21.2157 15.2771 20.6577 13.9534 19.7835C12.422 18.776 13.414 18.2211 14.2882 17.3159C14.5176 17.0803 18.4825 13.4719 18.56 13.1433C18.5693 13.103 18.5786 12.9511 18.4887 12.8705C18.3988 12.7899 18.2655 12.8178 18.1663 12.8395C18.0299 12.8705 15.8506 14.312 11.6284 17.1609C11.0084 17.5856 10.4504 17.7933 9.94822 17.7809C9.39332 17.7685 8.33002 17.4678 7.53952 17.2105C6.56922 16.8943 5.79732 16.7269 5.86552 16.1937C5.89962 15.9116 6.28402 15.6264 7.01562 15.335Z" fill="white" />
    </g>
    <defs>
      <clipPath id="clip0_58_267">
        <rect width="31" height="31" fill="white" />
      </clipPath>
    </defs>
  </symbol>

  <symbol id="vk" width="31" height="31" viewBox="0 0 31 31" fill="none" xmlns="http://www.w3.org/2000/svg">
    <g clip-path="url(#clip0_58_264)">
      <path d="M14.8677 31.0117H16.1604C23.1881 31.0117 26.688 31.0117 28.858 28.8417C31.0156 26.6717 31.0156 23.1594 31.0156 16.1565V14.839C31.0156 7.86402 31.0156 4.35172 28.858 2.18172C26.688 0.0117188 23.1757 0.0117188 16.1604 0.0117188H14.8677C7.84002 0.0117188 4.34013 0.0117188 2.17013 2.18172C0.015625 4.35172 0.015625 7.86712 0.015625 14.8669V16.1844C0.015625 23.1594 0.015625 26.6717 2.18563 28.8417C4.35563 31.0117 7.86793 31.0117 14.8677 31.0117Z" fill="#262626" />
      <path d="M16.5103 22.3456C9.44545 22.3456 5.41545 17.5034 5.24805 9.44336H8.78825C8.90605 15.3582 11.5131 17.8661 13.5808 18.3807V9.44336H16.9133V14.546C18.9531 14.3259 21.0983 12.0009 21.8206 9.44336H25.1531C24.6013 12.1249 22.9583 14.4561 20.6178 15.8759C23.2311 17.1748 25.1624 19.5308 25.925 22.3456H22.2577C21.5664 19.8718 19.4584 18.0552 16.9102 17.7328V22.3456H16.5103Z" fill="white" />
    </g>
    <defs>
      <clipPath id="clip0_58_264">
        <rect width="31" height="31" fill="white" />
      </clipPath>
    </defs>
  </symbol>

  <symbol id="r" width="31" height="31" viewBox="0 0 31 31" fill="none" xmlns="http://www.w3.org/2000/svg">
    <g clip-path="url(#clip0_58_259)">
      <path d="M7.5392 31H23.4577C27.621 31 30.9969 27.6241 30.9969 23.4608V7.5392C31 3.3852 27.6365 0.0124 23.4825 0H7.5175C3.3635 0.0124 0 3.3852 0 7.5392V23.4577C0 27.6241 3.3759 31 7.5392 31Z" fill="#262626" />
      <path d="M23.4825 0H15.5C15.5 8.5591 22.4409 15.5 31 15.5V7.5392C31 3.3852 27.6365 0.0124 23.4825 0Z" fill="#BABABA" />
      <path d="M19.1491 14.7932H9.99172V11.1693H19.1491C19.6854 11.1693 20.0574 11.2623 20.2434 11.4266C20.4294 11.5909 20.5472 11.8916 20.5472 12.3318V13.6338C20.5472 14.0988 20.4325 14.3995 20.2434 14.5638C20.0574 14.725 19.6854 14.7932 19.1491 14.7932ZM19.7784 7.75H6.10742V23.25H9.99172V18.2063H17.1496L20.5441 23.25H24.8934L21.1486 18.1846C22.5281 17.98 23.1481 17.5553 23.6596 16.8609C24.1711 16.1634 24.4284 15.0474 24.4284 13.5625V12.4C24.4284 11.5165 24.3354 10.819 24.1711 10.2858C24.0068 9.7526 23.7309 9.2876 23.3341 8.8691C22.9156 8.4723 22.4506 8.1964 21.8926 8.0104C21.3346 7.843 20.6371 7.75 19.7784 7.75Z" fill="white" />
    </g>
    <defs>
      <clipPath id="clip0_58_259">
        <rect width="31" height="31" fill="white" />
      </clipPath>
    </defs>
  </symbol>

  <symbol id="topArr" width="14" height="14" viewBox="0 0 14 14" fill="none" xmlns="http://www.w3.org/2000/svg">
    <path d="M11.6199 5.22086L7.81655 9.02419C7.36738 9.47336 6.63238 9.47336 6.18322 9.02419L2.37988 5.22086" stroke="black" stroke-width="0.875" stroke-miterlimit="10" stroke-linecap="round" stroke-linejoin="round" />
  </symbol>

</svg>