<svg width="70" height="35" viewBox="0 0 70 35" fill="none" xmlns="http://www.w3.org/2000/svg">
<path d="M63.4845 7.2569V12.7421C61.4701 12.8611 59.8909 14.4262 59.8909 16.3267V17.8738C59.8909 19.8753 58.1654 21.5089 56.0278 21.5089H14.0877C11.9501 21.5089 10.2053 19.8753 10.2053 17.8738V16.3267C10.2053 14.3901 8.56836 12.7925 6.50391 12.7276V7.26051C6.50391 3.8129 9.50431 1 13.1903 1H56.8212C60.5072 1 63.4883 3.80929 63.4883 7.26051L63.4845 7.2569Z" stroke="black" stroke-width="2" stroke-linecap="round" stroke-linejoin="round"/>
<path d="M69 16.3264V20.7694C69 26.6909 63.862 31.5053 57.5338 31.5053H12.4662C6.12263 31.5053 1 26.6945 1 20.7694V16.3264C1 14.3394 2.72552 12.7274 4.8439 12.7274H6.49623C8.56454 12.7959 10.1976 14.3935 10.1976 16.3264V17.8735C10.1976 19.875 11.9424 21.5087 14.08 21.5087H56.0201C58.1577 21.5087 59.8833 19.875 59.8833 17.8735V16.3264C59.8833 14.4259 61.4663 12.8608 63.4768 12.7418C63.5654 12.7238 63.6578 12.7238 63.7464 12.7238H65.1484C67.2706 12.7238 68.9923 14.3394 68.9923 16.3228L69 16.3264Z" stroke="black" stroke-width="2" stroke-linecap="round" stroke-linejoin="round"/>
<path d="M6.50391 29.9297V33.7091" stroke="black" stroke-width="2" stroke-linecap="round" stroke-linejoin="round"/>
<path d="M63.5001 29.9297V33.7091" stroke="black" stroke-width="2" stroke-linecap="round" stroke-linejoin="round"/>
</svg>
