<svg width="72" height="38" viewBox="0 0 72 38" fill="none" xmlns="http://www.w3.org/2000/svg">
<path d="M4.99366 14.197H1V36.4366H4.99366V14.197Z" stroke="black" stroke-width="2" stroke-linecap="round" stroke-linejoin="round"/>
<path d="M71.0007 1H66.9902V36.4401H71.0007V1Z" stroke="black" stroke-width="2" stroke-linecap="round" stroke-linejoin="round"/>
<path d="M9.49097 21.7734H62.012C64.7695 21.7734 67.0072 24.0112 67.0072 26.7687V30.5695H4.99023V26.27C4.99023 23.7891 7.00593 21.7734 9.48677 21.7734H9.49097Z" stroke="black" stroke-width="2" stroke-linecap="round" stroke-linejoin="round"/>
<path d="M60.7507 15.9277H48.2627C46.6495 15.9277 45.3418 17.2354 45.3418 18.8486V18.8528C45.3418 20.4659 46.6495 21.7737 48.2627 21.7737H60.7507C62.3639 21.7737 63.6716 20.4659 63.6716 18.8528V18.8486C63.6716 17.2354 62.3639 15.9277 60.7507 15.9277Z" stroke="black" stroke-width="2" stroke-linecap="round" stroke-linejoin="round"/>
</svg>
